<svg width="1600" height="900" viewBox="0 0 1600 900" fill="none" xmlns="http://www.w3.org/2000/svg">
  <defs>
    <linearGradient id="bg" x1="0" y1="0" x2="1600" y2="900" gradientUnits="userSpaceOnUse">
      <stop stop-color="#E8F4FB"/>
      <stop offset="0.55" stop-color="#E9F7F3"/>
      <stop offset="1" stop-color="#FFF4DE"/>
    </linearGradient>
    <linearGradient id="line" x1="240" y1="120" x2="1360" y2="780" gradientUnits="userSpaceOnUse">
      <stop stop-color="#0284C7" stop-opacity="0.8"/>
      <stop offset="1" stop-color="#0D9488" stop-opacity="0.8"/>
    </linearGradient>
    <radialGradient id="glow" cx="0" cy="0" r="1" gradientUnits="userSpaceOnUse" gradientTransform="translate(1220 160) rotate(142.714) scale(460 280)">
      <stop stop-color="#0EA5E9" stop-opacity="0.25"/>
      <stop offset="1" stop-color="#0EA5E9" stop-opacity="0"/>
    </radialGradient>
  </defs>

  <rect width="1600" height="900" fill="url(#bg)"/>
  <rect width="1600" height="900" fill="url(#glow)"/>

  <g opacity="0.45" stroke="url(#line)">
    <path d="M180 730C420 620 640 640 840 510C1020 390 1190 200 1420 170" stroke-width="2"/>
    <path d="M220 760C470 660 700 690 910 560C1080 450 1240 270 1460 230" stroke-width="1.6"/>
    <path d="M160 680C360 600 560 560 760 430C960 300 1160 160 1390 140" stroke-width="1.4"/>
  </g>

  <g fill="#0F172A" opacity="0.84">
    <rect x="250" y="250" width="230" height="120" rx="18" fill-opacity="0.08"/>
    <rect x="530" y="310" width="260" height="120" rx="18" fill-opacity="0.08"/>
    <rect x="840" y="260" width="260" height="120" rx="18" fill-opacity="0.08"/>
    <rect x="1150" y="330" width="220" height="120" rx="18" fill-opacity="0.08"/>
  </g>

  <circle cx="430" cy="580" r="26" fill="#0284C7" fill-opacity="0.45"/>
  <circle cx="720" cy="520" r="20" fill="#0D9488" fill-opacity="0.45"/>
  <circle cx="1040" cy="610" r="24" fill="#F59E0B" fill-opacity="0.35"/>

  <text x="250" y="180" fill="#0F172A" fill-opacity="0.86" font-size="72" font-family="Space Grotesk, Manrope, sans-serif" font-weight="700" letter-spacing="-1.5">
    AI Project Showcase
  </text>
  <text x="252" y="230" fill="#334155" fill-opacity="0.85" font-size="28" font-family="Manrope, sans-serif">
    Production architecture preview placeholder
  </text>
</svg>
