<svg xmlns="http://www.w3.org/2000/svg" viewBox="0 0 100 100">
  <defs>
    <linearGradient id="aws-grad" x1="0%" y1="0%" x2="100%" y2="100%">
      <stop offset="0%" style="stop-color:#ff9900"/>
      <stop offset="100%" style="stop-color:#e68a00"/>
    </linearGradient>
  </defs>
  <g fill="url(#aws-grad)">
    <path d="M35.7 56.2c-.7-.4-2.5-1.5-3.5-2.1-.5-.3-.6-.4-.3-.9.2-.4.7-.9 1.2-1.2.2-.1.5-.1.5.2 0 .4.1.6.4.8.5.3 2.4 1.3 2.9 1.5.6.3 1.2.5 1.4.8.2.4-.2.8-.7.9-.3.1-1.2.1-1.9-.5-.4-.3-.7-.3-1.1-.4zM40.1 54.2c-.4-.4-.8-.8-.4-1.3.3-.3.8-.6 1.2-.7.5-.1.7.1.5.5-.1.3-.3.5-.6.6.1.1.3.2.5.2.6 0 1.2-.3 1.6-.5.3-.2.5 0 .3.3-.5.7-1.8 1.3-3.1 1.6 0-.2 0-.3 0-.7zM54.5 53c0-1.6 0-3.1-.2-4.6-.1-.4-.4-.5-.8-.5-.4 0-.8.1-.9.4-.2.6-.3 1.3-.3 2.1v.4c-.3-.4-.8-.6-1.3-.6-.8 0-1.5.5-1.7 1.2-.2.8-.2 1.6-.2 2.5 0 1 .3 1.8 1 2.2.5.3 1.1.2 1.5-.2.3-.3.5-.7.5-1.2 0-.7 0-1.5.1-2.2 0-.4.1-.8.1-1.2h.4c.7 0 1.1.3 1.1 1 .1 1 .1 2 .1 2.9 0 .4.3.7.7.8.1 0 .3 0 .4-.1.6-.2 1-.8 1-1.6 0-.8-.1-1.6-.1-2.4-.1-.9 0-1.7-.2-2.6.3-.3.6-.5 1-.4.5.1.8.5.8 1.1 0 .9-.1 1.8-.1 2.8 0 .6.1 1.2.1 1.8 0 .4.2.7.6.8.1 0 .3 0 .3-.1.8-.4 1.2-1.1 1.2-2 0-.8 0-1.7-.1-2.5v-.4c0-.4.1-.7.3-1 .3-.3.7-.5 1.1-.4.7.1 1.2.6 1.2 1.3 0 1-.1 1.9-.2 2.9-.1.7-.1 1.4 0 2.1.1.3.4.4.7.3.3-.2.5-.4.6-.8.3-1 .4-2.1.4-3.2 0-.3-.2-.5-.5-.6-.2-.1-.5-.2-.8-.2-.6 0-1 .3-1.2.8-.1.2-.2.5-.2.8 0-.5.2-1 .6-1.3.4-.3.9-.5 1.4-.5.3 0 .6.1.8.3.2.2.4.5.4.8 0 .5-.3 1-.7 1.2-.3.2-.6.2-.9.3-.2.1-.5.1-.7.3-.3.2-.5.6-.5.9-.1.4 0 .8.1 1.2.1.4.2.8.3 1.2.1.4.2.7.2 1.1 0 .5.1.9.1 1.4.1.5.2 1 .3 1.5.1.3.1.6.1.9 0 .5-.1 1-.5 1.3-.4.4-1.1.6-1.6.4-.4-.2-.7-.6-.7-1.1 0-.4 0-.8.1-1.2.1-.7.2-1.4.3-2.1 0-.5.1-1 0-1.5 0-.2-.1-.5-.2-.7 0 .1-.1.1-.1.2-.1.6-.3 1.2-.5 1.8-.2.5-.5 1.1-.8 1.5-.2.3-.5.4-.8.4-.5 0-.8-.4-.8-.9 0-.3.1-.6.3-.9.3-.7.5-1.4.5-2.1 0-.5 0-1-.2-1.5 0-.3-.2-.5-.4-.6 0 .1-.1.2-.1.3-.1.8-.3 1.5-.5 2.3-.2.5-.4 1-.6 1.5-.2.3-.5.5-.9.5-.5 0-.8-.3-.9-.8 0-.3.1-.7.3-1 .4-.7.7-1.5.8-2.3.1-.6.1-1.1 0-1.7 0-.3-.1-.5-.2-.7-.1-.3-.3-.5-.5-.6-.2-.1-.5-.2-.8-.1-.3.1-.6.4-.6.7-.1.6-.1 1.1-.1 1.7v.6c-.4-.6-.9-.8-1.5-.8-.5 0-1 .2-1.3.5-.3.4-.5.9-.5 1.4 0 .5.1 1 .3 1.5.3.8.5 1.6.5 2.5 0 .8-.1 1.5-.4 2.3-.2.5-.5 1-.9 1.4-.4.4-1 .6-1.5.4-.3-.1-.5-.3-.7-.6-.3-.4-.3-.8-.3-1.3 0-.6.1-1.2.2-1.8.1-1 .2-2 .3-3 0-.7 0-1.4-.1-2.1 0-.4-.1-.7-.4-1-.3-.2-.6-.4-1-.4-.7 0-1.2.4-1.4 1-.1.4-.2.8-.2 1.2 0 .8.1 1.6.2 2.4.1.7.2 1.5.2 2.2 0 .9-.1 1.8-.4 2.6-.2.6-.6 1.1-1.1 1.4-.5.3-1.1.3-1.6.1-.4-.2-.6-.5-.7-.9-.1-.4 0-.8 0-1.3 0-.9.1-1.8.2-2.7.1-.7.1-1.5.1-2.2 0-.6-.1-1.3-.2-1.9 0-.3-.2-.5-.4-.6-.2-.1-.4-.2-.7-.1-.4.1-.6.4-.7.8 0 .3 0 .6-.1.9"/>
    <path d="M59.5 49.8c-.5 0-.9.4-.9.9s.4.9.9.9.9-.4.9-.9-.4-.9-.9-.9"/>
    <path d="M44.3 68.8c0 .1 0 .2-.1.3-.7 1.6-2.4 2.7-4.2 2.7-1.8 0-3.5-.9-4.5-2.5-.1-.2-.1-.5.1-.6.2-.1.5-.1.6.1.9 1.4 2.4 2.2 4 2.2 1.5 0 3-.8 3.8-2.1.1-.2.3-.3.5-.2.2.2.2.5-.2.7"/>
    <path d="M58.4 67.1c-1.9 1.1-4.1 1.4-6.2.9-1-.2-2-.7-2.8-1.3-.2-.2-.1-.5.1-.6.2-.1.5-.1.6.1 1.5 1.5 3.6 2 5.6 1.6 1.1-.2 2.2-.7 3-1.5.2-.2.5-.1.6.1.1.4-.1.5-.9.7"/>
    <path d="M58.5 64.4c-2.5-1.8-6.2-2.4-9-1.3-1.5.6-2.8 1.5-3.8 2.7-.2.2 0 .6.2.6h.1c1.1-1.4 2.7-2.4 4.5-3 3-1.1 6.3-.5 8.8 1.3.2.2.3.4.1.7-.2.2-.5.1-.7-.1-.1.1-.2.1-.3-.1"/>
    <path d="M60.5 59.6c-.2-.2-.5-.2-.7 0l-11.2 11.2c-.2.2-.2.5 0 .7.1.1.2.1.3.1s.2 0 .3-.1l11.2-11.2c.2-.2.2-.5 0-.7"/>
    <path d="M56.9 56.2c-3-1.4-6.4-1.2-9.3.3-1 .5-1.8 1.2-2.5 2-.2.2 0 .5.2.6.1 0 .2 0 .3-.1.8-.9 1.8-1.6 2.9-2.2 2.6-1.3 5.6-1.5 8.3-.5 1.2.4 2.2 1.1 3 2 .2.2.5.2.6-.1.1-.1 0-.3-.1-.4-1-1-2.1-1.6-3.4-1.6"/>
  </g>
</svg>
