<svg xmlns="http://www.w3.org/2000/svg" viewBox="0 0 100 100">
  <circle cx="50" cy="50" r="35" fill="none" stroke="#4285f4" stroke-width="3"/>
  <path d="M65 50c0-1.5-.2-3-.6-4.4H50v8.3h8.5c-.4 2.2-1.5 4-3.2 5.3v4.3h5.2c3-2.8 4.7-6.9 4.7-11.8z" fill="#4285f4"/>
  <path d="M50 65c4.3 0 7.9-1.4 10.5-3.8l-5.2-4c-1.4.9-3.2 1.5-5.3 1.5-4 0-7.5-2.7-8.7-6.4H26v4.1c2.6 5.1 7.9 8.6 14 8.6z" fill="#34a853"/>
  <path d="M41.3 57.3c-.3-.9-.5-1.9-.5-3s.2-2.1.5-3v-4.1H26c-1.5 3-1.5 6.4 0 9.4l6.3-4.9 9 4.6z" fill="#fbbc05"/>
  <path d="M50 44.8c2.3 0 4.3.8 5.9 2.3l4.4-4.4c-2.7-2.5-6.2-4-10.3-4-6.1 0-11.4 3.5-14 8.6l9 4.6c1.2-3.7 4.7-6.4 8.7-6.4z" fill="#ea4335"/>
</svg>
